HIERARCHY
ROOT reference
{
	OFFSET 0.000000 0.000000 0.000000
	CHANNELS 6 Xposition Yposition Zposition Xrotation Yrotation Zrotation
	JOINT root
	{
		OFFSET 0.000000 85.220299 0.000000
		CHANNELS 3 Xrotation Yrotation Zrotation
		JOINT Hips
		{
			OFFSET 0.000000 0.000000 0.000000
			CHANNELS 3 Xrotation Yrotation Zrotation
			JOINT Spine
			{
				OFFSET 0.024531 -0.106468 0.005142
				CHANNELS 3 Xrotation Yrotation Zrotation
				JOINT Spine1
				{
					OFFSET -5.934230 17.515099 -1.568750
					CHANNELS 3 Xrotation Yrotation Zrotation
					JOINT Spine2
					{
						OFFSET -5.656650 17.560997 -2.039968
						CHANNELS 3 Xrotation Yrotation Zrotation
						JOINT Neck
						{
							OFFSET -8.329130 16.329697 -2.915258
							CHANNELS 3 Xrotation Yrotation Zrotation
							JOINT Head
							{
								OFFSET -6.527639 8.747269 -3.723740
								CHANNELS 3 Xrotation Yrotation Zrotation
								End Site
								{
									OFFSET 0.000000 0.100006 0.000000
								}
							}
						}
						JOINT RightShoulder
						{
							OFFSET -7.548931 16.091202 -6.464999
							CHANNELS 3 Xrotation Yrotation Zrotation
							JOINT RightArm
							{
								OFFSET 1.460297 -3.215790 -15.688601
								CHANNELS 3 Xrotation Yrotation Zrotation
								JOINT RightForeArm
								{
									OFFSET -0.986897 -17.342896 -23.725803
									CHANNELS 3 Xrotation Yrotation Zrotation
									JOINT RightHand
									{
										OFFSET -19.719299 -1.689102 -15.155701
										CHANNELS 3 Xrotation Yrotation Zrotation
										End Site
										{
											OFFSET 0.000000 0.099998 0.000000
										}
									}
								}
							}
						}
						JOINT LeftShoulder
						{
							OFFSET -9.121471 16.556396 0.627642
							CHANNELS 3 Xrotation Yrotation Zrotation
							JOINT LeftArm
							{
								OFFSET -2.617006 -0.120667 15.866400
								CHANNELS 3 Xrotation Yrotation Zrotation
								JOINT LeftForeArm
								{
									OFFSET 3.917280 -23.361198 17.423401
									CHANNELS 3 Xrotation Yrotation Zrotation
									JOINT LeftHand
									{
										OFFSET -17.669102 -4.052429 -17.110798
										CHANNELS 3 Xrotation Yrotation Zrotation
										End Site
										{
											OFFSET 0.000000 0.099998 0.000000
										}
									}
								}
							}
						}
					}
				}
			}
			JOINT RightUpLeg
			{
				OFFSET 1.978338 0.032570 -9.351160
				CHANNELS 3 Xrotation Yrotation Zrotation
				JOINT RightLeg
				{
					OFFSET -16.318901 -37.475601 -18.880396
					CHANNELS 3 Xrotation Yrotation Zrotation
					JOINT RightFoot
					{
						OFFSET 11.926700 -39.411598 -0.221466
						CHANNELS 3 Xrotation Yrotation Zrotation
						JOINT RightToe
						{
							OFFSET -13.403602 -7.774330 -9.167408
							CHANNELS 3 Xrotation Yrotation Zrotation
							End Site
							{
								OFFSET 0.000000 0.100000 0.000000
							}
						}
					}
				}
			}
			JOINT LeftUpLeg
			{
				OFFSET -1.978338 -0.032578 9.351150
				CHANNELS 3 Xrotation Yrotation Zrotation
				JOINT LeftLeg
				{
					OFFSET -6.494508 -39.380299 20.837799
					CHANNELS 3 Xrotation Yrotation Zrotation
					JOINT LeftFoot
					{
						OFFSET 18.436304 -33.869202 14.441299
						CHANNELS 3 Xrotation Yrotation Zrotation
						JOINT LeftToe
						{
							OFFSET -11.729000 -11.545400 7.298840
							CHANNELS 3 Xrotation Yrotation Zrotation
							End Site
							{
								OFFSET 0.000000 0.100000 0.000000
							}
						}
					}
				}
			}
		}
	}
}
MOTION
Frames: 12
Frame Time: 0.041667
-1.421063 0.000000 -48.332901 -0.000000 0.000000 -0.000000 0.820669 5.503551 -0.149259 0.651739 0.185121 0.137529 -1.262503 -0.552730 0.772440 -1.785015 -0.589225 1.085657 -1.185571 -0.452828 0.755387 -0.706938 -1.905736 0.559652 -1.410530 -3.664583 0.094363 1.508503 -1.266619 0.310315 8.769803 -2.825358 -2.464729 -1.859947 -4.037846 2.933451 3.860850 2.401958 1.846603 -3.107152 -0.104681 -0.605787 6.227536 -4.500823 5.535363 18.188420 -12.895302 -16.215928 2.498195 0.628057 0.908629 -10.349516 1.070597 0.997585 -1.017165 -0.331059 1.510449 -45.846958 -8.531599 11.724476 2.576930 0.098262 3.660525 15.788875 8.951296 -14.997395 1.026109 5.367701 10.370873 29.181000 1.881035 6.176088 -8.858055 -2.397565 17.917073 
-0.444094 0.000000 -59.625000 -0.000000 0.000000 -0.000000 1.429124 4.950577 -0.213489 1.018462 0.290313 0.214016 -1.659671 -0.674442 0.510053 -2.365732 -0.689824 0.723120 -1.574011 -0.558316 0.512539 -0.419055 -1.707923 0.611997 -0.980966 -3.300781 0.441813 1.647663 -1.035518 0.286020 9.991516 -3.103024 -2.313603 -1.461885 -3.127673 2.288669 4.336285 2.768190 2.068862 -3.557773 0.556862 -0.705481 3.217917 -3.624909 6.431452 19.984876 -14.586670 -17.760754 3.105762 1.063171 0.906130 -8.429720 -3.409532 0.130071 -1.906010 -0.644869 2.836398 -34.570309 -9.777480 14.381339 1.258315 0.153468 4.247765 17.026321 7.360540 -14.284908 0.993938 5.059014 9.783299 35.840386 4.040586 9.388152 -36.419170 -5.782617 20.471703 
-0.000019 0.000000 -70.349403 -0.000000 0.000000 -0.000000 1.722058 4.252968 -0.391956 1.673160 0.479532 0.348965 -1.993226 -0.914026 0.166140 -2.877045 -0.867400 0.253246 -1.911451 -0.716612 0.199284 -0.111762 -1.323483 0.753742 -0.626485 -2.595899 0.965936 1.504864 -0.557659 0.195971 10.992810 -3.305543 -2.420170 -1.096181 -2.314637 1.705022 4.704796 3.016992 2.241499 -2.897345 0.516936 -0.588135 -0.995303 -1.624133 7.171707 21.178099 -15.753978 -18.778797 3.260993 1.157674 0.785823 -6.033585 -5.762215 0.930404 -0.522142 -0.166243 0.774477 -24.323907 -10.552486 16.123290 2.644676 0.095511 4.142822 17.466389 8.200726 -12.721771 0.778373 3.475096 6.757693 30.348965 2.836728 9.179266 -47.218740 -8.573279 12.483966 
-0.000021 0.000000 -77.370697 -0.000000 0.000000 -0.000000 1.657920 3.379557 -0.612825 2.490841 0.717874 0.514603 -2.239698 -1.180214 -0.168935 -3.278759 -1.036094 -0.201168 -2.174631 -0.863787 -0.103781 0.141267 -0.841004 0.903693 -0.401997 -1.710602 1.464923 1.251347 -0.080584 0.098182 11.602177 -3.218188 -2.885767 -0.860806 -1.802576 1.333509 4.919363 3.061528 2.320612 -1.265782 -0.188334 -0.246853 -5.439785 1.095071 7.741778 21.500015 -16.074862 -19.052200 3.042494 1.015221 0.606381 -3.389704 -5.711117 3.217627 3.200715 0.852840 -4.712349 -18.989881 -10.630897 17.818811 2.678168 0.094369 4.381306 16.951973 11.610704 -10.946901 0.339485 1.290985 2.536118 15.050035 -2.785741 5.178886 -35.747844 -7.794726 -2.307385 
0.599374 0.000000 -84.548103 -0.000000 0.000000 -0.000000 1.145173 2.322981 -0.223628 2.701471 0.779803 0.556729 -2.137810 -1.185066 -0.333817 -3.171100 -0.948472 -0.431782 -2.105277 -0.806114 -0.263284 0.232014 -0.586560 0.569845 -0.009781 -1.184837 1.030252 1.870488 -0.586147 0.231395 10.390309 -2.512540 -3.998964 -0.670300 -1.394330 1.035070 4.628754 2.325082 2.049510 -0.671825 0.190911 -0.150316 -6.814903 1.898073 6.952520 20.095870 -14.693801 -17.855802 3.101794 1.353448 0.234299 -0.837759 -5.411041 5.401554 8.530925 1.667230 -12.467266 -15.934835 -11.190781 22.358962 2.577910 0.048166 6.104781 14.950048 9.599715 -8.569337 0.287128 1.075852 2.115975 5.457549 -8.264177 -1.436646 -24.590850 -6.387661 1.381512 
0.151933 0.000000 -91.571198 -0.000000 0.000000 -0.000000 0.820659 1.199352 0.010607 2.416281 0.696158 0.499624 -1.887141 -0.898548 -0.359909 -2.821205 -0.616001 -0.485071 -1.884087 -0.565233 -0.309921 0.351333 -0.549618 0.293984 0.414399 -1.063378 0.705430 1.618878 -0.708036 0.230173 9.019974 -2.728361 -4.429787 -0.302110 -0.620532 0.463736 3.974701 1.727874 1.583239 -0.332659 0.499245 -0.103693 -6.397277 2.095494 5.530016 17.016803 -11.834618 -15.201008 2.640155 1.266333 -0.300320 1.815286 -0.618200 7.848173 11.822090 1.806614 -17.227805 -18.529736 -12.857049 25.352720 3.416721 0.054906 -1.602345 12.185594 8.016698 -7.268240 0.406593 1.577372 3.094051 -0.609779 -10.723387 -6.639242 -15.931420 -4.510382 5.164448 
-0.737509 0.000000 -97.808098 -0.000000 0.000000 -0.000000 0.769286 0.169536 -0.052903 1.749523 0.501659 0.364574 -1.541023 -0.406391 -0.266030 -2.303507 -0.137359 -0.381555 -1.556150 -0.212637 -0.253833 0.505911 -0.640285 0.167350 0.787246 -1.186885 0.655402 0.462801 -0.339773 0.081595 7.639145 -3.675679 -4.075503 0.190135 0.384101 -0.289631 3.109881 1.409131 1.022967 -0.134901 0.508230 -0.064936 -4.750367 2.027474 3.682256 12.417546 -7.989771 -11.168188 1.964845 0.880200 -0.662157 4.269645 7.567911 9.580472 11.308223 1.802874 -16.484931 -24.579870 -14.503905 22.581925 6.397322 -0.217630 -14.993583 8.804892 7.785656 -6.755700 0.561557 2.292958 4.481849 -2.656811 -11.010811 -9.192871 -10.547553 -2.949317 6.613113 
0.788429 0.000000 -101.359001 -0.000000 0.000000 -0.000000 0.689094 -0.316572 -0.406552 1.196185 0.341587 0.250856 -1.125695 -0.118873 -0.079254 -1.679840 0.097306 -0.133358 -1.144362 -0.016730 -0.091712 0.579085 -0.457157 0.019567 0.996451 -0.808018 0.512398 0.029259 -0.240136 0.036853 5.103418 -3.099743 -3.503315 0.301808 0.607413 -0.458931 2.554479 1.013963 0.554274 -0.104728 0.161586 -0.033347 -2.711129 1.515734 2.222446 6.975863 -4.075115 -6.315446 3.848478 1.534684 1.456865 4.078995 4.797600 5.645593 5.962309 1.366980 -8.740687 -19.952135 -7.006597 11.063016 7.590018 -0.243301 -7.665855 5.190770 6.455144 -4.566584 0.507443 2.033487 3.979656 -3.675886 -9.970813 -10.258940 -5.171399 -1.344856 8.452799 
1.223452 0.000000 -104.762001 -0.000000 0.000000 -0.000000 0.435533 -0.326106 -0.423249 0.609918 0.173223 0.128760 -0.594273 -0.007509 0.009370 -0.885877 0.113749 -0.004980 -0.606396 0.035396 -0.005148 0.390053 -0.203916 -0.019225 0.676943 -0.341407 0.304922 -0.086231 -0.137524 0.014430 2.399788 -1.691539 -2.084801 0.190415 0.384637 -0.290034 1.499087 0.511325 0.219678 -0.052381 -0.010978 -0.010088 -1.055012 0.725665 1.011893 2.419190 -1.298091 -2.200117 3.107968 1.143049 1.714587 2.458596 1.529607 2.181680 1.903586 0.541156 -2.809247 -10.637693 -1.657970 2.874813 5.012316 0.021832 -1.437022 2.083082 3.870912 -2.122131 0.300097 1.128541 2.218951 -2.742759 -5.929368 -6.733872 -1.392023 -0.215189 6.059914 
1.223452 0.000000 -104.762001 -0.000000 0.000000 -0.000000 0.435533 -0.326106 -0.423249 0.609918 0.173223 0.128760 -0.594273 -0.007509 0.009370 -0.885877 0.113749 -0.004980 -0.606396 0.035396 -0.005148 0.390053 -0.203916 -0.019225 0.676943 -0.341407 0.304922 -0.086231 -0.137524 0.014430 2.399788 -1.691539 -2.084801 0.190415 0.384637 -0.290034 1.499087 0.511325 0.219678 -0.052381 -0.010978 -0.010088 -1.055012 0.725665 1.011893 2.419190 -1.298091 -2.200117 3.107968 1.143049 1.714587 2.458596 1.529607 2.181680 1.903586 0.541156 -2.809247 -10.637693 -1.657970 2.874813 5.012316 0.021832 -1.437022 2.083082 3.870912 -2.122131 0.300097 1.128541 2.218951 -2.742759 -5.929368 -6.733872 -1.392023 -0.215189 6.059914 
1.223452 0.000000 -104.762001 -0.000000 0.000000 -0.000000 0.435533 -0.326106 -0.423249 0.609918 0.173223 0.128760 -0.594273 -0.007509 0.009370 -0.885877 0.113749 -0.004980 -0.606396 0.035396 -0.005148 0.390053 -0.203916 -0.019225 0.676943 -0.341407 0.304922 -0.086231 -0.137524 0.014430 2.399788 -1.691539 -2.084801 0.190415 0.384637 -0.290034 1.499087 0.511325 0.219678 -0.052381 -0.010978 -0.010088 -1.055012 0.725665 1.011893 2.419190 -1.298091 -2.200117 3.107968 1.143049 1.714587 2.458596 1.529607 2.181680 1.903586 0.541156 -2.809247 -10.637693 -1.657970 2.874813 5.012316 0.021832 -1.437022 2.083082 3.870912 -2.122131 0.300097 1.128541 2.218951 -2.742759 -5.929368 -6.733872 -1.392023 -0.215189 6.059914 
1.223452 0.000000 -104.762001 -0.000000 0.000000 -0.000000 0.435533 -0.326106 -0.423249 0.609918 0.173223 0.128760 -0.594273 -0.007509 0.009370 -0.885877 0.113749 -0.004980 -0.606396 0.035396 -0.005148 0.390053 -0.203916 -0.019225 0.676943 -0.341407 0.304922 -0.086231 -0.137524 0.014430 2.399788 -1.691539 -2.084801 0.190415 0.384637 -0.290034 1.499087 0.511325 0.219678 -0.052381 -0.010978 -0.010088 -1.055012 0.725665 1.011893 2.419190 -1.298091 -2.200117 3.107968 1.143049 1.714587 2.458596 1.529607 2.181680 1.903586 0.541156 -2.809247 -10.637693 -1.657970 2.874813 5.012316 0.021832 -1.437022 2.083082 3.870912 -2.122131 0.300097 1.128541 2.218951 -2.742759 -5.929368 -6.733872 -1.392023 -0.215189 6.059914 
